# xmcd
#
# Track frame offsets: 
#        150
#        14671
#        30560
#        47364
#        57581
#        68615
#        88485
#        107177
#        122098
#        134503
#        149410
#
# Disc length: 2160 seconds
#
# Revision: 0
# Processed by: cddbd v1.5.2PL0 Copyright (c) Steve Scherf et al.
# Submitted via: ExactAudioCopy v1.3
#
DISCID=a3086e0b
DTITLE=Johnny Moeller - BlooGaLoo!
DYEAR=2010
DGENRE=Modern Electric Blues
TTITLE0=BlooGaLoo!
TTITLE1=I'm Movin' On Up
TTITLE2=Trick Bag
TTITLE3=Got a Feelin'
TTITLE4=I'm Stuck on You
TTITLE5=Theme from The One Armed Swordsman
TTITLE6=Everybody's Got to Cry Sometime
TTITLE7=Raise Your Hands
TTITLE8=Well Goodbye Baby
TTITLE9=Shufflin'Around
TTITLE10=Tease Me Baby
EXTD=
EXTT0=
EXTT1=
EXTT2=
EXTT3=
EXTT4=
EXTT5=
EXTT6=
EXTT7=
EXTT8=
EXTT9=
EXTT10=
PLAYORDER=
